<svg xmlns="http://www.w3.org/2000/svg" width="58" height="58" viewBox="0 0 58 58"><defs><clipPath id="a"><path fill="#fff" d="M33 461h38a10 10 0 0 1 10 10v38a10 10 0 0 1-10 10H33a10 10 0 0 1-10-10v-38a10 10 0 0 1 10-10zm21.21 39.98a3.3 3.3 0 0 0 4.77 0 3.57 3.57 0 0 0 0-4.93L53.13 490l5.85-6.06a3.57 3.57 0 0 0 0-4.93 3.3 3.3 0 0 0-4.77 0l-8.24 8.52a3.57 3.57 0 0 0 0 4.93z"/></clipPath></defs><path fill="none" stroke="#fff" stroke-miterlimit="50" stroke-width="4" d="M33 461h38a10 10 0 0 1 10 10v38a10 10 0 0 1-10 10H33a10 10 0 0 1-10-10v-38a10 10 0 0 1 10-10zm21.21 39.98a3.3 3.3 0 0 0 4.77 0 3.57 3.57 0 0 0 0-4.93L53.13 490l5.85-6.06a3.57 3.57 0 0 0 0-4.93 3.3 3.3 0 0 0-4.77 0l-8.24 8.52a3.57 3.57 0 0 0 0 4.93z" clip-path="url(&quot;#a&quot;)" transform="translate(-23 -461)"/></svg>