<svg xmlns="http://www.w3.org/2000/svg" width="144" height="43" viewBox="0 0 144 43"><defs><clipPath id="a"><path fill="#fff" d="M277.25 2159h123a10 10 0 0 1 10 10v23a10 10 0 0 1-10 10h-123a10 10 0 0 1-10-10v-23a10 10 0 0 1 10-10zm114.07 20.84c.91-.88.91-2.3 0-3.18a2.38 2.38 0 0 0-3.29 0l-4.03 3.9-4.04-3.9a2.38 2.38 0 0 0-3.29 0c-.9.88-.9 2.3 0 3.18l5.68 5.5c.91.88 2.38.88 3.3 0z"/></clipPath></defs><path fill="none" stroke="#8f8f8f" stroke-miterlimit="50" stroke-width="2" d="M277.25 2159h123a10 10 0 0 1 10 10v23a10 10 0 0 1-10 10h-123a10 10 0 0 1-10-10v-23a10 10 0 0 1 10-10zm114.07 20.84c.91-.88.91-2.3 0-3.18a2.38 2.38 0 0 0-3.29 0l-4.03 3.9-4.04-3.9a2.38 2.38 0 0 0-3.29 0c-.9.88-.9 2.3 0 3.18l5.68 5.5c.91.88 2.38.88 3.3 0z" clip-path="url(&quot;#a&quot;)" transform="translate(-267 -2159)"/></svg>