<svg xmlns="http://www.w3.org/2000/svg" width="27" height="27" viewBox="0 0 27 27"><path fill="#fff" d="M1.31 1h3.13c.72 0 1.31.59 1.31 1.31v.1c0 .42-.2.8-.52 1.04l.2.17h19.29c.69 0 1.25.57 1.25 1.26v.09c0 .4-.2.77-.5 1 .38.25.6.7.54 1.19l-1.51 9.32a1.24 1.24 0 0 1-1.4 1.06H7.74l.39 2.52h13.53c.65 0 1.18.53 1.18 1.19v.12c0 .66-.53 1.2-1.18 1.2H7.14a1.25 1.25 0 0 1-1.44-1.03L3.14 4.68c-.06-.35.04-.7.25-.96H1.31C.59 3.72 0 3.13 0 2.4v-.09C0 1.6.59 1 1.31 1zm4.72 5.22l.61 4.04.09-.01h4.49V6.22zm1.3 8.56h3.89v-3.5H6.8zm14.66 0l.57-3.5H17.5v3.5zm1.29-7.99c.03-.21.12-.4.24-.57H17.5v4.03h5.22zm-11.06-.57v4.03h4.28V6.22zm0 8.56h4.28v-3.5h-4.28zm-4.6 10.34c.2-.52.8-.84 1.35-.73l1.05.22c.54.12.81.62.61 1.14l-.13.32c-.2.51-.8.84-1.35.73l-1.05-.23a.81.81 0 0 1-.61-1.13zm11.97 0c.2-.52.8-.84 1.35-.73l1.05.22c.54.12.81.62.61 1.14l-.13.32c-.2.51-.8.84-1.35.73l-1.05-.23a.81.81 0 0 1-.61-1.13z"/></svg>