<svg xmlns="http://www.w3.org/2000/svg" width="160" height="33" viewBox="0 0 160 33"><path fill="#fff" d="M10 1h140a10 10 0 0 1 10 10v12a10 10 0 0 1-10 10H10A10 10 0 0 1 0 23V11A10 10 0 0 1 10 1zm141.23 14.03v-1.77c0-1.14 0-2.16-.85-2.84-.82-.66-1.9-.62-2.87-.62h-2.48v15.57h1.1v-7.1h1.63c.7 0 2.03-.05 2.84-1 .61-.7.63-1.4.63-2.24zm-1.6 1.78c-.47.49-1.1.55-1.71.55h-1.8V10.7h1.68c.93 0 1.29.07 1.7.38.63.46.65 1.21.65 2.6v1.35c0 .13.09 1.19-.52 1.78zm-12.15 7.41c.4-.64.47-1.3.47-2.03v-8.6c0-1.2 0-2.55-1.13-3.4a3.45 3.45 0 0 0-2.03-.57c-1.35-.02-2.6.58-3.04 1.88-.25.7-.25 1.59-.25 1.76v8.78c0 .93.07 1.8.7 2.58.79.93 2.16.95 2.48.95 1.62 0 2.46-.77 2.8-1.35zm-.6-2.44c0 .9-.04 1.85-.9 2.44-.35.27-.78.38-1.23.38-1.27 0-1.83-.8-1.99-1.21-.13-.4-.18-.89-.18-1.77v-8.58c0-.26-.04-1.5.93-2.12.18-.1.58-.33 1.21-.33.52 0 .9.16 1.06.25.45.22.64.55.73.72.31.6.38 1.33.38 2.63zm-13.52 3.59h1.1V9.8h-1.1v6.93h-4.1V9.8h-1.09v15.57h1.08v-7.7h4.1zM107.68 16c-.97-1.08-1.37-1.68-1.37-3.16 0-1.14.3-1.76.79-2.07.45-.26.97-.26 1.13-.26 1.37 0 1.7.83 1.8 1.36.07.31.07.49.07 1.04v1.39h1.08v-1.13c0-1.12 0-2.44-1.1-3.15-.73-.44-1.63-.44-1.88-.44-2.23 0-2.75 1.39-2.9 2.27-.1.44-.1 1.08-.1 1.17 0 1.5.52 2.38.9 2.89.34.46.9 1.08 1.83 1.96.16.13 1.22 1.13 1.8 2 .3.47.57 1.02.57 2.24 0 1.28-.32 1.94-.88 2.27-.47.28-.97.28-1.15.28-2.05 0-2.3-1.4-2.35-2.16-.02-.33 0-.64 0-.97v-1.25h-1.1v2.2c0 .46.02.82.18 1.26.18.46.43.81.79 1.12.22.2.4.31.52.38.5.26 1.22.37 1.82.37 1.54 0 2.33-.6 2.71-1.14.32-.47.56-1.24.56-2.54 0-1.24-.22-2.1-1.01-3.07-.5-.61-1.06-1.14-1.62-1.7-.39-.4-.75-.77-1.09-1.16zm-22.14-5.23h4.55V9.8h-5.63v15.57h5.61v-.97h-4.53v-6.68h3.74v-.95h-3.74zm-7.24 14.6L74.87 16l3.38-6.2h-1.24l-3.97 7.63V9.8h-1.1v15.57h1.08v-5.91l1.17-2.16 2.91 8.07zm-14.64 0h1.15V9.8h-1.15zm-7.55-.66c.7-.62.79-1.4.79-2.23v-2.67c0-.81-.03-1.7-.75-2.3a3.3 3.3 0 0 0-1.69-.59c.34-.06 1.4-.2 1.76-1.3.14-.4.11-.95.11-1.06v-2.31c0-.62-.09-1.28-.54-1.79-.68-.75-1.8-.66-2.05-.66h-3.02v15.57h3.18c.31 0 1.37.04 2.2-.66zm-2.12-8.34c-.32.1-.48.13-1.09.13h-1.08v-5.77h1.4c.7 0 1.62.02 1.92.81.06.18.11.47.11.9v1.88c0 .38.09 1.66-1.26 2.05zm1.8 5.63c0 1.14-.09 1.67-.6 2.07-.32.22-.69.35-1.47.35h-1.88v-6.97h1.13c1.06 0 2.26.14 2.69 1.28.1.33.13.69.13 1.06zM35.56 10.77h4.56V9.8h-5.64v15.57h5.61v-.97h-4.53v-6.68h3.75v-.95h-3.75zm-9.33 14.6h1.1V9.8h-1.1v6.93h-4.11V9.8h-1.08v15.57h1.08v-7.7h4.1zM12.2 10.77h2.82V9.8H8.3v.97h2.77v14.6h1.13z"/></svg>