<svg xmlns="http://www.w3.org/2000/svg" width="115" height="24" viewBox="0 0 115 24"><path d="M10 .97h95a10 10 0 0 1 10 10V14a10 10 0 0 1-10 10H10A10 10 0 0 1 0 14v-3.03a10 10 0 0 1 10-10zm98.7 10.09V9.79c0-.83 0-1.56-.62-2.05-.58-.48-1.36-.44-2.06-.44h-1.78v11.21h.8v-5.12h1.16c.5 0 1.46-.03 2.04-.71.44-.51.46-1.02.46-1.62zm-1.15 1.29c-.34.34-.8.39-1.23.39h-1.3V7.95h1.21c.67 0 .93.04 1.22.27.45.33.47.87.47 1.87v.97c0 .09.06.86-.37 1.29zm-8.74 5.33c.3-.46.34-.94.34-1.46v-6.19c0-.88 0-1.84-.8-2.45a2.5 2.5 0 0 0-1.47-.41c-.97-.02-1.86.41-2.19 1.35-.17.51-.17 1.14-.17 1.27v6.32c0 .67.04 1.3.5 1.86.57.66 1.55.68 1.78.68 1.17 0 1.77-.56 2.01-.97zm-.42-1.76c0 .65-.03 1.33-.65 1.76-.26.19-.57.27-.9.27-.9 0-1.3-.57-1.42-.87-.1-.29-.13-.64-.13-1.27V9.63c0-.19-.03-1.08.67-1.52.13-.08.42-.24.87-.24.38 0 .65.11.77.17.32.16.45.4.51.53.23.43.28.95.28 1.89zm-9.73 2.59h.8V7.3h-.8v4.98h-2.95V7.3h-.77v11.21h.77v-5.55h2.95zM77.4 11.76c-.7-.78-1-1.21-1-2.27 0-.83.22-1.27.58-1.5.32-.19.7-.19.8-.19 1 0 1.24.61 1.3.99.05.22.05.35.05.75v1h.78v-.81c0-.81 0-1.77-.8-2.28-.51-.31-1.16-.31-1.34-.31-1.6 0-1.98 1-2.09 1.63-.06.32-.06.78-.06.84 0 1.08.37 1.72.64 2.08.25.34.65.78 1.32 1.42.11.09.87.81 1.3 1.44.2.34.4.73.4 1.61 0 .92-.23 1.39-.63 1.63-.34.21-.7.21-.83.21-1.48 0-1.65-1.02-1.69-1.56v-1.6h-.8v1.59c0 .33.03.58.14.9.13.33.3.59.57.81.16.14.29.22.37.27a3 3 0 0 0 1.31.27c1.1 0 1.67-.43 1.95-.82.22-.34.4-.89.4-1.83 0-.89-.16-1.51-.73-2.21-.35-.44-.76-.82-1.16-1.22-.28-.29-.54-.56-.78-.84zM61.48 7.99h3.27V7.3H60.7v11.21h4.04v-.7h-3.26V13h2.7v-.69h-2.7zm-5.2 10.52l-2.47-6.75 2.43-4.46h-.89l-2.85 5.49V7.3h-.8v11.21h.78v-4.26l.85-1.56 2.09 5.82zm-10.52 0h.82V7.3h-.82zm-5.43-.48c.5-.44.56-1 .56-1.6V14.5c0-.58-.01-1.22-.53-1.65-.42-.35-1.05-.41-1.22-.43.25-.04 1-.14 1.27-.93.1-.29.08-.68.08-.76V9.06c0-.45-.07-.92-.39-1.29-.49-.54-1.3-.47-1.48-.47h-2.17v11.21h2.29c.22 0 .99.03 1.59-.48zm-1.53-6c-.22.06-.34.09-.78.09h-.77V7.96h1c.5 0 1.17.02 1.38.59.05.13.08.33.08.65v1.35c0 .27.06 1.19-.9 1.48zm1.3 4.05c0 .82-.06 1.2-.44 1.49-.22.16-.48.25-1.05.25h-1.35v-5.01h.81c.77 0 1.62.09 1.93.92.08.24.1.49.1.76zM25.56 7.99h3.27V7.3h-4.05v11.21h4.04v-.7h-3.26V13h2.7v-.69h-2.7zm-6.71 10.52h.8V7.3h-.8v4.98H15.9V7.3h-.78v11.21h.78v-5.55h2.95zM8.77 7.99h2.02V7.3H5.96v.69h2v10.52h.8z"/></svg>